<svg width="283" height="20" viewBox="0 0 283 20" fill="none" xmlns="http://www.w3.org/2000/svg"><path d="M280.072 2.93c-6.283-6.271-17.059-1.806-17.07 7.068-.109 5.375 4.627 10.112 10 10 8.875-.008 13.339-10.787 7.069-17.07l.001.001zm-.828 13.312c-5.546 5.536-15.061 1.594-15.069-6.242-.097-4.745 4.082-8.926 8.828-8.83 7.834.01 11.775 9.527 6.241 15.072z" fill="#fff"/><path d="M270.67 7.304h1.016v6.678h1.172v-7.85h-2.187l-.001 1.172zM278.056 9.45a1.995 1.995 0 00.322-2.142 1.995 1.995 0 10-3.316 2.142 2.52 2.52 0 102.994 0zm-2.323-1.32a.831.831 0 01.51-.762.826.826 0 11-.51.763zm.826 4.698a1.35 1.35 0 01-.956-2.307 1.352 1.352 0 011.911 1.911 1.35 1.35 0 01-.955.396zM268.999 7.93h-1.172v1.113h-1.113v1.172h1.113v1.113h1.172v-1.113h1.113V9.043h-1.113V7.929zM11.553 9.767a.328.328 0 01-.093.172.241.241 0 01-.176.071h-1.22c-.082 0-.123.033-.123.1l-.537 2.008c-.028.067-.007.1.062.1h.847a.209.209 0 01.165.071.191.191 0 01.04.172l-.247 1.947a.327.327 0 01-.093.172.24.24 0 01-.176.071h-1.2a.146.146 0 00-.145.1l-.7 2.678a.275.275 0 01-.29.223H5.314c-.166 0-.228-.088-.186-.264l.723-2.637c0-.067-.028-.1-.083-.1H4.115a.146.146 0 00-.145.1l-.7 2.678a.275.275 0 01-.29.223H.627c-.166 0-.228-.088-.186-.264l.723-2.637c0-.067-.028-.1-.083-.1H.212a.207.207 0 01-.165-.071.19.19 0 01-.041-.172l.227-1.947a.328.328 0 01.093-.172.241.241 0 01.176-.071h1.26c.03 0 .06-.011.083-.03a.086.086 0 00.04-.071l.538-2.008c0-.067-.028-.1-.083-.1h-.847a.207.207 0 01-.165-.071.191.191 0 01-.041-.172l.248-1.968a.22.22 0 01.083-.172.278.278 0 01.186-.071h1.219c.082 0 .124-.033.124-.1l.723-2.678a.275.275 0 01.289-.223h2.335c.165 0 .227.088.186.264l-.7 2.637c0 .067.02.1.062.1h1.673c.082 0 .124-.033.124-.1l.723-2.678a.275.275 0 01.289-.223h2.335c.165 0 .227.088.186.264l-.7 2.637c0 .067.02.1.062.1h.868a.208.208 0 01.165.071.19.19 0 01.04.172l-.254 1.969zm-5.1 2.455c.03 0 .06-.011.083-.03a.086.086 0 00.04-.071l.538-2.008c0-.067-.028-.1-.083-.1H5.375c-.083 0-.124.033-.124.1l-.537 2.008c-.028.067-.007.1.062.1l1.677.001zm11.484 5.984a.2.2 0 01-.218-.132.2.2 0 01-.01-.091l-.082-1.947a.053.053 0 00.004-.04.053.053 0 00-.025-.031.14.14 0 00-.083-.03h-2.541c-.083 0-.124.033-.124.1l-.578 1.947a.275.275 0 01-.29.224h-2.334c-.165 0-.22-.088-.165-.264L16.14 4.229a.275.275 0 01.289-.223h2.707a.236.236 0 01.248.223l1.2 13.713v.064c0 .133-.076.2-.227.2h-2.42zm-2.376-4.585c-.027.067-.007.1.062.1h1.8a.09.09 0 00.1-.1l-.248-5.538c-.014-.04-.035-.061-.062-.061-.027 0-.048.02-.062.061l-1.59 5.538zm6.405 4.585a.207.207 0 01-.165-.071.19.19 0 01-.041-.172L23.475 4.25a.328.328 0 01.093-.172.24.24 0 01.177-.072h3.616a3.693 3.693 0 012.634.9 3.168 3.168 0 01.96 2.424c0 .133-.013.336-.04.609l-.806 6.329a4.388 4.388 0 01-1.464 2.863 4.492 4.492 0 01-3.064 1.075h-3.615zm2.913-2.556c-.027.067 0 .1.083.1l.909-.02a1.3 1.3 0 00.94-.467c.284-.332.46-.742.506-1.177l.744-5.964c.016-.114.023-.23.02-.345a1.52 1.52 0 00-.278-.964.952.952 0 00-.8-.355h-.888a.09.09 0 00-.1.1l-1.136 9.092z" fill="#fff"/></svg>