<svg width="85" height="51" viewBox="0 0 85 51" fill="none" xmlns="http://www.w3.org/2000/svg"><path d="M5.646 12.082c-.018-5.627 3.571-8.743 10.168-8.765 4.752-.017 5.597 3.094 5.602 4.224.008 2.165-3.057 4.463-3.057 4.463s.169 1.347 2.794 1.338c2.624-.008 5.183-1.745 5.166-6.089-.018-4.996-5.238-7.278-10.396-7.258C11.607.01.159.619.2 12 .236 22.113 19.276 23.003 19.302 29.48c.025 7.03-7.856 8.923-10.509 8.934-2.652.012-3.747-1.898-3.752-2.944-.018-5.692 5.638-7.281 5.638-7.281a2.38 2.38 0 00-2.522-2.31c-5.645.017-7.893 4.88-7.876 9.626.014 4.035 2.863 6.556 7.165 6.542 8.224-.03 17.5-4.05 17.465-12.978-.031-8.349-19.24-10.53-19.265-16.986z" fill="#fff"/><path d="M84.051 34.45c-.066-.158-.25-.12-.493.08-.934.772-3.069 2.956-8.064 2.976-9.103.033-10.68-14.993-10.68-14.993s6.935-5.191 8.017-7.28c1.081-2.09-2.365-2.557-2.365-2.557s-4.853 5.915-8.29 7.652c.368-2.57 2.91-8.435 3.066-11.807.155-3.373-4.053-2.551-4.724-2.226.006 1.471-3.709 14.838-5.061 22.184-.796 1.271-1.932 2.731-2.95 2.737-.59 0-.806-1.094-.812-2.665-.008-2.175 1.195-5.662 1.187-7.779-.006-1.466-.674-1.554-1.25-1.551-.128 0-.824.019-.948.019-1.483.005-.998-1.268-2.329-1.263-4.091.014-9.3 4.485-9.524 11.238-1.38.916-3.313 2.068-4.301 2.073-1.034.003-1.292-.957-1.295-1.787-.005-1.454 2.35-10.1 2.35-10.1s2.992-.769 4.302-1.024c.99-.191 1.264-.263 1.655-.743.39-.48 1.134-1.467 1.739-2.354.605-.888.01-1.574-1.112-1.569-1.472.006-5.41.936-5.41.936s1.89-8.172 1.89-8.34c0-.167-.222-.252-.532-.25-.965.1-1.913.329-2.817.68-1.253.448-2.273 1.988-2.478 2.704-.206.716-1.622 6.323-1.622 6.323s-7.587 2.623-8.623 3.017a.158.158 0 00-.108.15c0 .066.87 3.39 2.647 3.386 1.281-.006 5.012-1.535 5.012-1.535s-1.922 7.658-1.91 10.2c.005 1.638.77 3.553 3.96 3.541 2.975-.01 5.567-1.534 7.022-2.603a4.116 4.116 0 003.958 2.566c2.877-.011 5.098-2.298 5.375-2.606.374.882 1.253 2.581 3.263 2.573 1.136-.003 2.314-1.284 3.182-2.512-.016.257-.012.515.01.771.347 3.17 5.048 1.307 5.298.863.158-2.29.058-6.98.973-9.872 1.21 9.87 5.815 16.512 14.087 16.48 4.626-.016 6.993-1.348 7.98-2.447a3.382 3.382 0 00.718-3.283l.007-.003zm-39.694-3.253c-3.972.013 1.214-10.3 4.604-10.314.006 1.33-.07 10.297-4.604 10.314z" fill="#fff"/><path d="M76.606 34.359c3.587-.014 6.364-2.379 6.872-3.147.657-1.002-.763-2.512-1.214-2.485-1.131 1.086-2.315 2.399-4.973 2.407-3.13.01-2.42-3.437-2.42-3.437s6.02.78 8.44-3.555a5.812 5.812 0 00.494-4.133c-.32-.84-2.063-2.356-4.848-2.12-3.424.288-7.737 3.863-8.685 8.155-.762 3.45.68 8.332 6.337 8.313l-.003.002zm3.825-14.47c.563-.02.513.91.36 1.885-.205 1.318-2.02 4.668-5.472 4.54.234-1.953 2.803-6.343 5.112-6.425zM35.103 48.548a1.219 1.219 0 011.196 1.46 1.222 1.222 0 01-1.663.89 1.22 1.22 0 01-.753-1.129 1.238 1.238 0 011.22-1.22zM37.251 42.173h2.268v5.077c0 1.024.543 1.765 1.749 1.765 1.205 0 1.739-.74 1.739-1.765v-5.077h2.267v5.14c0 2.154-1.231 3.675-4.005 3.675-2.775 0-4.02-1.532-4.02-3.66v-5.155h.002zM47.391 47.938a3.91 3.91 0 002.76 1.145c.766 0 1.232-.325 1.232-.74 0-.495-.558-.688-1.478-.883-1.425-.286-3.423-.65-3.423-2.7 0-1.455 1.23-2.712 3.448-2.712a5.273 5.273 0 013.512 1.207l-1.22 1.596a4.016 4.016 0 00-2.436-.897c-.765 0-1.023.3-1.023.675 0 .455.533.61 1.492.79 1.425.3 3.395.714 3.395 2.673 0 1.741-1.28 2.895-3.603 2.895a5.274 5.274 0 01-3.837-1.375l1.181-1.673v-.001z" fill="#fff"/></svg>