<svg width="272" height="286" viewBox="0 0 272 286" fill="none" xmlns="http://www.w3.org/2000/svg"><g filter="url(#filter0_d_360_4255)"><rect x="6" y="2" width="260" height="274" rx="5" fill="#F14646"/><rect x="5" y="1" width="262" height="276" rx="6" stroke="#1FFB20" stroke-width="2"/></g><path d="M54.5 73.135c12.5 0 22.635-10.134 22.635-22.635 0-12.501-10.134-22.635-22.635-22.635-12.501 0-22.635 10.134-22.635 22.635 0 12.5 10.134 22.635 22.635 22.635z" fill="#1FFF20" fill-opacity=".98" stroke="#373748" stroke-width="2" stroke-linecap="round" stroke-linejoin="round"/><path d="M54.5 66.38c8.77 0 15.88-7.11 15.88-15.88 0-8.771-7.11-15.881-15.88-15.881-8.771 0-15.881 7.11-15.881 15.88 0 8.772 7.11 15.882 15.88 15.882z" fill="#1FFF20" fill-opacity=".98" stroke="#373748" stroke-width="2" stroke-linecap="round" stroke-linejoin="round"/><path d="M50.334 46.049c0 5.176 5.563 5.355 5.563 9.082 0 1.294-.57 1.76-1.474 1.76-.907 0-1.477-.466-1.477-1.76v-1.422h-2.691v1.242c0 2.457 1.035 4.038 3.078 4.452v1.318h2.329v-1.318c2.019-.414 3.081-1.995 3.081-4.452 0-5.175-5.566-5.358-5.566-9.085 0-1.294.518-1.784 1.425-1.784.908 0 1.422.49 1.422 1.784v.752h2.692v-.57c0-2.46-1.035-4.012-3.054-4.426v-1.346h-2.33v1.346c-1.99.441-2.998 1.994-2.998 4.427z" fill="#373748"/><path fill-rule="evenodd" clip-rule="evenodd" d="M50.849 72.551v-5.987h7.302v5.987h-7.302zm0-38.114v-5.988h7.302v5.988h-7.302zm-18.4 12.412h5.987v7.302H32.45v-7.302zm38.114 0h5.988v7.302h-5.988v-7.302zM36.326 63.512l4.233-4.236 5.163 5.164-4.234 4.235-5.162-5.163zm26.95-26.952l4.235-4.234 5.163 5.164-4.235 4.233-5.163-5.163zm9.398 26.951l-4.235-4.235-5.163 5.164 4.235 4.235 5.163-5.163zM45.722 36.56l-4.234-4.234-5.162 5.164 4.233 4.233 5.163-5.163z" fill="#373748" stroke="#373748" stroke-width="2"/><rect x="22" y="18" width="65" height="65" rx="4" stroke="#1FFF20" stroke-width="2"/><path d="M54.5 149.135c12.5 0 22.635-10.134 22.635-22.635 0-12.501-10.134-22.635-22.635-22.635-12.501 0-22.635 10.134-22.635 22.635 0 12.501 10.134 22.635 22.635 22.635z" fill="#1FFF20" fill-opacity=".98" stroke="#373748" stroke-width="2" stroke-linecap="round" stroke-linejoin="round"/><path d="M54.5 142.381c8.77 0 15.88-7.11 15.88-15.881s-7.11-15.881-15.88-15.881c-8.771 0-15.881 7.11-15.881 15.881s7.11 15.881 15.88 15.881z" fill="#1FFF20" fill-opacity=".98" stroke="#373748" stroke-width="2" stroke-linecap="round" stroke-linejoin="round"/><path d="M50.334 122.049c0 5.176 5.563 5.355 5.563 9.082 0 1.294-.57 1.76-1.474 1.76-.907 0-1.477-.466-1.477-1.76v-1.422h-2.691v1.242c0 2.457 1.035 4.038 3.078 4.452v1.318h2.329v-1.318c2.019-.414 3.081-1.995 3.081-4.452 0-5.175-5.566-5.358-5.566-9.085 0-1.294.518-1.784 1.425-1.784.908 0 1.422.49 1.422 1.784v.752h2.692v-.569c0-2.46-1.035-4.013-3.054-4.427v-1.346h-2.33v1.346c-1.99.441-2.998 1.994-2.998 4.427z" fill="#373748"/><path fill-rule="evenodd" clip-rule="evenodd" d="M50.849 148.551v-5.987h7.302v5.987h-7.302zm0-38.115v-5.987h7.302v5.987h-7.302zm-18.4 12.413h5.987v7.302H32.45v-7.302zm38.114 0h5.988v7.302h-5.988v-7.302zm-34.237 16.663l4.233-4.235 5.163 5.163-4.234 4.235-5.162-5.163zm26.95-26.952l4.235-4.234 5.163 5.164-4.235 4.234-5.163-5.164zm9.398 26.952l-4.235-4.235-5.163 5.163 4.235 4.235 5.163-5.163zM45.722 112.56l-4.234-4.234-5.162 5.164 4.233 4.234 5.163-5.164z" fill="#373748" stroke="#373748" stroke-width="2"/><rect x="22" y="94" width="65" height="65" rx="4" stroke="#1FFF20" stroke-width="2"/><path d="M136.5 73.135c12.501 0 22.635-10.134 22.635-22.635 0-12.501-10.134-22.635-22.635-22.635-12.501 0-22.635 10.134-22.635 22.635 0 12.5 10.134 22.635 22.635 22.635z" fill="#1FFF20" fill-opacity=".98" stroke="#373748" stroke-width="2" stroke-linecap="round" stroke-linejoin="round"/><path d="M136.5 66.38c8.771 0 15.881-7.11 15.881-15.88 0-8.771-7.11-15.881-15.881-15.881s-15.881 7.11-15.881 15.88c0 8.772 7.11 15.882 15.881 15.882z" fill="#1FFF20" fill-opacity=".98" stroke="#373748" stroke-width="2" stroke-linecap="round" stroke-linejoin="round"/><path d="M132.334 46.049c0 5.176 5.562 5.355 5.562 9.082 0 1.294-.569 1.76-1.473 1.76-.907 0-1.477-.466-1.477-1.76v-1.422h-2.691v1.242c0 2.457 1.035 4.038 3.078 4.452v1.318h2.329v-1.318c2.018-.414 3.081-1.995 3.081-4.452 0-5.175-5.566-5.358-5.566-9.085 0-1.294.518-1.784 1.426-1.784.907 0 1.421.49 1.421 1.784v.752h2.692v-.57c0-2.46-1.036-4.012-3.054-4.426v-1.346h-2.329v1.346c-1.991.441-2.999 1.994-2.999 4.427z" fill="#373748"/><path fill-rule="evenodd" clip-rule="evenodd" d="M132.849 72.551v-5.987h7.302v5.987h-7.302zm0-38.114v-5.988h7.302v5.988h-7.302zm-18.4 12.412h5.987v7.302h-5.987v-7.302zm38.114 0h5.988v7.302h-5.988v-7.302zm-34.237 16.663l4.233-4.236 5.163 5.164-4.234 4.235-5.162-5.163zm26.95-26.952l4.235-4.234 5.163 5.164-4.235 4.233-5.163-5.163zm9.398 26.951l-4.235-4.235-5.163 5.164 4.235 4.235 5.163-5.163zM127.722 36.56l-4.234-4.234-5.162 5.164 4.233 4.233 5.163-5.163z" fill="#373748" stroke="#373748" stroke-width="2"/><rect x="104" y="18" width="65" height="65" rx="4" stroke="#1FFF20" stroke-width="2"/><path d="M136.5 149.135c12.501 0 22.635-10.134 22.635-22.635 0-12.501-10.134-22.635-22.635-22.635-12.501 0-22.635 10.134-22.635 22.635 0 12.501 10.134 22.635 22.635 22.635z" fill="#1FFF20" fill-opacity=".98" stroke="#373748" stroke-width="2" stroke-linecap="round" stroke-linejoin="round"/><path d="M136.5 142.381c8.771 0 15.881-7.11 15.881-15.881s-7.11-15.881-15.881-15.881-15.881 7.11-15.881 15.881 7.11 15.881 15.881 15.881z" fill="#1FFF20" fill-opacity=".98" stroke="#373748" stroke-width="2" stroke-linecap="round" stroke-linejoin="round"/><path d="M132.334 122.049c0 5.176 5.562 5.355 5.562 9.082 0 1.294-.569 1.76-1.473 1.76-.907 0-1.477-.466-1.477-1.76v-1.422h-2.691v1.242c0 2.457 1.035 4.038 3.078 4.452v1.318h2.329v-1.318c2.018-.414 3.081-1.995 3.081-4.452 0-5.175-5.566-5.358-5.566-9.085 0-1.294.518-1.784 1.426-1.784.907 0 1.421.49 1.421 1.784v.752h2.692v-.569c0-2.46-1.036-4.013-3.054-4.427v-1.346h-2.329v1.346c-1.991.441-2.999 1.994-2.999 4.427z" fill="#373748"/><path fill-rule="evenodd" clip-rule="evenodd" d="M132.849 148.551v-5.987h7.302v5.987h-7.302zm0-38.115v-5.987h7.302v5.987h-7.302zm-18.4 12.413h5.987v7.302h-5.987v-7.302zm38.114 0h5.988v7.302h-5.988v-7.302zm-34.237 16.663l4.233-4.235 5.163 5.163-4.234 4.235-5.162-5.163zm26.95-26.952l4.235-4.234 5.163 5.164-4.235 4.234-5.163-5.164zm9.398 26.952l-4.235-4.235-5.163 5.163 4.235 4.235 5.163-5.163zm-26.952-26.952l-4.234-4.234-5.162 5.164 4.233 4.234 5.163-5.164z" fill="#373748" stroke="#373748" stroke-width="2"/><rect x="104" y="94" width="65" height="65" rx="4" stroke="#1FFF20" stroke-width="2"/><path d="M218.5 73.135c12.501 0 22.635-10.134 22.635-22.635 0-12.501-10.134-22.635-22.635-22.635-12.501 0-22.635 10.134-22.635 22.635 0 12.5 10.134 22.635 22.635 22.635z" fill="#1FFF20" fill-opacity=".98" stroke="#373748" stroke-width="2" stroke-linecap="round" stroke-linejoin="round"/><path d="M218.5 66.38c8.771 0 15.881-7.11 15.881-15.88 0-8.771-7.11-15.881-15.881-15.881s-15.881 7.11-15.881 15.88c0 8.772 7.11 15.882 15.881 15.882z" fill="#1FFF20" fill-opacity=".98" stroke="#373748" stroke-width="2" stroke-linecap="round" stroke-linejoin="round"/><path d="M214.334 46.049c0 5.176 5.562 5.355 5.562 9.082 0 1.294-.569 1.76-1.473 1.76-.907 0-1.477-.466-1.477-1.76v-1.422h-2.691v1.242c0 2.457 1.035 4.038 3.078 4.452v1.318h2.329v-1.318c2.018-.414 3.081-1.995 3.081-4.452 0-5.175-5.566-5.358-5.566-9.085 0-1.294.518-1.784 1.426-1.784.907 0 1.421.49 1.421 1.784v.752h2.692v-.57c0-2.46-1.036-4.012-3.054-4.426v-1.346h-2.329v1.346c-1.991.441-2.999 1.994-2.999 4.427z" fill="#373748"/><path fill-rule="evenodd" clip-rule="evenodd" d="M214.849 72.551v-5.987h7.302v5.987h-7.302zm0-38.114v-5.988h7.302v5.988h-7.302zm-18.4 12.412h5.987v7.302h-5.987v-7.302zm38.114 0h5.988v7.302h-5.988v-7.302zm-34.237 16.663l4.233-4.236 5.163 5.164-4.234 4.235-5.162-5.163zm26.95-26.952l4.235-4.234 5.163 5.164-4.235 4.233-5.163-5.163zm9.398 26.951l-4.235-4.235-5.163 5.164 4.235 4.235 5.163-5.163zM209.722 36.56l-4.234-4.234-5.162 5.164 4.233 4.233 5.163-5.163z" fill="#373748" stroke="#373748" stroke-width="2"/><rect x="186" y="18" width="65" height="65" rx="4" stroke="#1FFF20" stroke-width="2"/><path d="M18 232a5 5 0 015-5h228a5 5 0 015 5v22a5 5 0 01-5 5H23a5 5 0 01-5-5v-22z" fill="#1FFB21"/><path d="M218.5 149.135c12.501 0 22.635-10.134 22.635-22.635 0-12.501-10.134-22.635-22.635-22.635-12.501 0-22.635 10.134-22.635 22.635 0 12.501 10.134 22.635 22.635 22.635z" fill="#1FFF20" fill-opacity=".98" stroke="#373748" stroke-width="2" stroke-linecap="round" stroke-linejoin="round"/><path d="M218.5 142.381c8.771 0 15.881-7.11 15.881-15.881s-7.11-15.881-15.881-15.881-15.881 7.11-15.881 15.881 7.11 15.881 15.881 15.881z" fill="#1FFF20" fill-opacity=".98" stroke="#373748" stroke-width="2" stroke-linecap="round" stroke-linejoin="round"/><path d="M214.334 122.049c0 5.176 5.562 5.355 5.562 9.082 0 1.294-.569 1.76-1.473 1.76-.907 0-1.477-.466-1.477-1.76v-1.422h-2.691v1.242c0 2.457 1.035 4.038 3.078 4.452v1.318h2.329v-1.318c2.018-.414 3.081-1.995 3.081-4.452 0-5.175-5.566-5.358-5.566-9.085 0-1.294.518-1.784 1.426-1.784.907 0 1.421.49 1.421 1.784v.752h2.692v-.569c0-2.46-1.036-4.013-3.054-4.427v-1.346h-2.329v1.346c-1.991.441-2.999 1.994-2.999 4.427z" fill="#373748"/><path fill-rule="evenodd" clip-rule="evenodd" d="M214.849 148.551v-5.987h7.302v5.987h-7.302zm0-38.115v-5.987h7.302v5.987h-7.302zm-18.4 12.413h5.987v7.302h-5.987v-7.302zm38.114 0h5.988v7.302h-5.988v-7.302zm-34.237 16.663l4.233-4.235 5.163 5.163-4.234 4.235-5.162-5.163zm26.95-26.952l4.235-4.234 5.163 5.164-4.235 4.234-5.163-5.164zm9.398 26.952l-4.235-4.235-5.163 5.163 4.235 4.235 5.163-5.163zm-26.952-26.952l-4.234-4.234-5.162 5.164 4.233 4.234 5.163-5.164z" fill="#373748" stroke="#373748" stroke-width="2"/><rect x="186" y="94" width="65" height="65" rx="4" stroke="#1FFF20" stroke-width="2"/><path d="M80.268 247.168c-.88 0-1.672-.184-2.376-.552a4.226 4.226 0 01-1.644-1.56c-.4-.664-.6-1.416-.6-2.256 0-.84.2-1.592.6-2.256a4.14 4.14 0 011.644-1.548c.704-.376 1.496-.564 2.376-.564.768 0 1.46.136 2.076.408a3.994 3.994 0 011.536 1.176l-1.512 1.368c-.544-.656-1.204-.984-1.98-.984-.456 0-.864.1-1.224.3-.352.2-.628.484-.828.852-.192.36-.288.776-.288 1.248s.096.892.288 1.26c.2.36.476.64.828.84.36.2.768.3 1.224.3.776 0 1.436-.328 1.98-.984l1.512 1.368c-.408.512-.92.904-1.536 1.176-.616.272-1.308.408-2.076.408zm4.672-8.568h2.376v6.516h4.008V247H84.94v-8.4zm13.046 6.768h-3.552l-.66 1.632H91.35l3.708-8.4h2.34l3.72 8.4h-2.472l-.66-1.632zm-.696-1.752l-1.08-2.688-1.08 2.688h2.16zm4.501-5.016h2.376v8.4h-2.376v-8.4zm11.651 8.4l-.024-4.452-2.16 3.624h-1.056l-2.148-3.504V247h-2.196v-8.4h1.956l2.952 4.848 2.88-4.848h1.956l.024 8.4h-2.184zm11.857-3.012V247h-2.376v-3.048l-3.204-5.352h2.508l1.992 3.336 1.992-3.336h2.304l-3.216 5.388zm7.693 3.18c-.888 0-1.688-.188-2.4-.564a4.292 4.292 0 01-1.668-1.56c-.4-.664-.6-1.412-.6-2.244 0-.832.2-1.58.6-2.244a4.292 4.292 0 011.668-1.56c.712-.376 1.512-.564 2.4-.564.888 0 1.684.188 2.388.564a4.185 4.185 0 011.668 1.56c.408.664.612 1.412.612 2.244 0 .832-.204 1.58-.612 2.244a4.185 4.185 0 01-1.668 1.56c-.704.376-1.5.564-2.388.564zm0-1.968c.424 0 .808-.1 1.152-.3.344-.2.616-.48.816-.84.2-.368.3-.788.3-1.26s-.1-.888-.3-1.248a2.148 2.148 0 00-.816-.852 2.25 2.25 0 00-1.152-.3c-.424 0-.808.1-1.152.3-.344.2-.616.484-.816.852-.2.36-.3.776-.3 1.248s.1.892.3 1.26c.2.36.472.64.816.84.344.2.728.3 1.152.3zm9.788 1.968c-1.248 0-2.22-.34-2.916-1.02-.688-.68-1.032-1.644-1.032-2.892V238.6h2.376v4.584c0 1.344.532 2.016 1.596 2.016 1.056 0 1.584-.672 1.584-2.016V238.6h2.34v4.656c0 1.248-.348 2.212-1.044 2.892-.688.68-1.656 1.02-2.904 1.02zm9.23-2.4h-1.296V247h-2.376v-8.4h3.84c.76 0 1.42.128 1.98.384.56.248.992.608 1.296 1.08.304.464.456 1.012.456 1.644 0 .608-.144 1.14-.432 1.596-.28.448-.684.8-1.212 1.056l1.812 2.64h-2.544l-1.524-2.232zm1.5-3.06c0-.392-.124-.696-.372-.912-.248-.216-.616-.324-1.104-.324h-1.32v2.46h1.32c.488 0 .856-.104 1.104-.312.248-.216.372-.52.372-.912zm11.043-3.108c.76 0 1.42.128 1.98.384.56.248.992.608 1.296 1.08.304.464.456 1.012.456 1.644 0 .632-.152 1.18-.456 1.644-.304.464-.736.824-1.296 1.08-.56.248-1.22.372-1.98.372h-1.464V247h-2.376v-8.4h3.84zm-.144 4.332c.488 0 .856-.104 1.104-.312.248-.216.372-.52.372-.912s-.124-.696-.372-.912c-.248-.216-.616-.324-1.104-.324h-1.32v2.46h1.32zm8.707 1.836h-1.296V247h-2.376v-8.4h3.84c.76 0 1.42.128 1.98.384.56.248.992.608 1.296 1.08.304.464.456 1.012.456 1.644 0 .608-.144 1.14-.432 1.596-.28.448-.684.8-1.212 1.056l1.812 2.64h-2.544l-1.524-2.232zm1.5-3.06c0-.392-.124-.696-.372-.912-.248-.216-.616-.324-1.104-.324h-1.32v2.46h1.32c.488 0 .856-.104 1.104-.312.248-.216.372-.52.372-.912zm3.71-3.108h2.376v8.4h-2.376v-8.4zm11.171 6.516V247h-7.524v-1.488l4.236-5.028h-4.128V238.6h7.236v1.488l-4.236 5.028h4.416zm7.784.048V247h-6.744v-8.4h6.588v1.836h-4.236v1.416h3.732v1.776h-3.732v1.536h4.392z" fill="#1C303B"/><defs><filter id="filter0_d_360_4255" x="0" y="0" width="272" height="286" filterUnits="userSpaceOnUse" color-interpolation-filters="sRGB"><feFlood flood-opacity="0" result="BackgroundImageFix"/><feColorMatrix in="SourceAlpha" values="0 0 0 0 0 0 0 0 0 0 0 0 0 0 0 0 0 0 127 0" result="hardAlpha"/><feOffset dy="4"/><feGaussianBlur stdDeviation="2"/><feComposite in2="hardAlpha" operator="out"/><feColorMatrix values="0 0 0 0 0 0 0 0 0 0 0 0 0 0 0 0 0 0 0.25 0"/><feBlend in2="BackgroundImageFix" result="effect1_dropShadow_360_4255"/><feBlend in="SourceGraphic" in2="effect1_dropShadow_360_4255" result="shape"/></filter></defs></svg>