<svg width="238" height="52" viewBox="0 0 238 52" fill="none" xmlns="http://www.w3.org/2000/svg"><path fill-rule="evenodd" clip-rule="evenodd" d="M1.737 4.322C.777 4.322 0 5.1 0 6.059v44.204C0 51.223.778 52 1.737 52h3.836c.67-1.53 2.201-2.6 3.982-2.6 1.78 0 3.311 1.07 3.982 2.6h4.197c.67-1.53 2.2-2.6 3.982-2.6 1.78 0 3.311 1.07 3.981 2.6h4.198c.67-1.53 2.2-2.6 3.981-2.6 1.781 0 3.312 1.07 3.982 2.6h4.197c.67-1.53 2.2-2.6 3.982-2.6 1.78 0 3.311 1.07 3.981 2.6h4.198c.67-1.53 2.2-2.6 3.981-2.6 1.781 0 3.312 1.07 3.982 2.6h4.197c.67-1.53 2.201-2.6 3.982-2.6 1.78 0 3.311 1.07 3.981 2.6h4.198c.67-1.53 2.2-2.6 3.981-2.6 1.781 0 3.312 1.07 3.982 2.6h4.198c.67-1.53 2.2-2.6 3.981-2.6 1.781 0 3.311 1.07 3.982 2.6h4.197a4.345 4.345 0 013.982-2.6 4.343 4.343 0 013.981 2.6h4.198c.67-1.53 2.2-2.6 3.981-2.6a4.345 4.345 0 013.982 2.6h4.197a4.345 4.345 0 013.982-2.6 4.343 4.343 0 013.981 2.6h4.198a4.344 4.344 0 013.981-2.6 4.345 4.345 0 013.982 2.6h4.197a4.346 4.346 0 013.982-2.6 4.346 4.346 0 013.982 2.6h4.197a4.345 4.345 0 013.982-2.6c1.78 0 3.311 1.07 3.981 2.6h4.198c.67-1.53 2.2-2.6 3.981-2.6a4.345 4.345 0 013.982 2.6h4.197a4.345 4.345 0 013.982-2.6 4.343 4.343 0 013.981 2.6h4.198c.67-1.53 2.2-2.6 3.981-2.6a4.345 4.345 0 013.982 2.6h4.197a4.346 4.346 0 013.982-2.6 4.346 4.346 0 013.982 2.6h4.197a4.344 4.344 0 013.981-2.6 4.345 4.345 0 013.982 2.6h3.836c.959 0 1.737-.778 1.737-1.737V6.059c0-.96-.778-1.737-1.737-1.737H1.737z" fill="#1C303B"/><rect x="85" width="68.516" height="14.148" rx="1.737" fill="#1FFF20" fill-opacity=".98"/><path d="M141.517 8.345h2.682v.872h-3.815V4.525h3.724v.871h-2.591v1.019h2.288v.845h-2.288v1.085zM134.569 9.217V4.525h2.238c1.612 0 2.717.925 2.717 2.346 0 1.42-1.105 2.346-2.717 2.346h-2.238zm1.14-.892h1.042c.978 0 1.619-.556 1.619-1.454 0-.898-.641-1.455-1.619-1.455h-1.042v2.91zM131.017 9.297c-1.556 0-2.696-1.032-2.696-2.426 0-1.395 1.14-2.427 2.696-2.427 1.548 0 2.695 1.026 2.695 2.427 0 1.4-1.147 2.426-2.695 2.426zm0-.925c.879 0 1.541-.61 1.541-1.501 0-.892-.662-1.502-1.541-1.502-.88 0-1.542.61-1.542 1.502 0 .891.662 1.501 1.542 1.501zM125.929 9.297c-1.527 0-2.667-1.012-2.667-2.426 0-1.415 1.14-2.427 2.674-2.427.852 0 1.563.295 2.027.831l-.732.644a1.617 1.617 0 00-1.238-.55c-.922 0-1.577.617-1.577 1.502 0 .884.655 1.501 1.577 1.501a1.6 1.6 0 001.238-.556l.732.643c-.464.543-1.175.838-2.034.838zM120.019 9.297c-1.556 0-2.696-1.032-2.696-2.426 0-1.395 1.14-2.427 2.696-2.427 1.548 0 2.695 1.026 2.695 2.427 0 1.4-1.147 2.426-2.695 2.426zm0-.925c.879 0 1.541-.61 1.541-1.501 0-.892-.662-1.502-1.541-1.502-.88 0-1.542.61-1.542 1.502 0 .891.662 1.501 1.542 1.501zM116.464 9.217h-1.07l-.007-2.815-1.45 2.319h-.514l-1.443-2.26v2.756h-1.07V4.525h.943l1.844 2.915 1.816-2.915h.937l.014 4.692zM107.357 9.297c-1.555 0-2.695-1.032-2.695-2.426 0-1.395 1.14-2.427 2.695-2.427 1.549 0 2.696 1.026 2.696 2.427 0 1.4-1.147 2.426-2.696 2.426zm0-.925c.88 0 1.542-.61 1.542-1.501 0-.892-.662-1.502-1.542-1.502-.879 0-1.541.61-1.541 1.502 0 .891.662 1.501 1.541 1.501zM104.16 9.217h-1.225l-.95-1.307h-1.049v1.307h-1.14V4.525h2.133c1.316 0 2.139.65 2.139 1.702 0 .704-.373 1.22-1.013 1.482l1.105 1.508zm-1.246-2.99c0-.516-.352-.818-1.049-.818h-.929v1.636h.929c.697 0 1.049-.308 1.049-.818zM96.842 4.525c1.316 0 2.14.65 2.14 1.702 0 1.046-.824 1.696-2.14 1.696h-.993v1.294h-1.14V4.525h2.133zm-.064 2.513c.697 0 1.05-.301 1.05-.81 0-.517-.353-.819-1.05-.819h-.929v1.63h.93z" fill="#1A2C38"/></svg>