<svg width="187" height="24" viewBox="0 0 187 24" fill="none" xmlns="http://www.w3.org/2000/svg"><path d="M9.613 21l-1.767-6.916L6.095 21h-2.28L.93 10.928h2.401l1.767 7.278 1.918-7.278h1.676l1.903 7.278 1.751-7.278h2.416L11.893 21h-2.28zm6.16 0V10.928h2.145V21h-2.144zm11.09 0l-4.801-6.765V21h-2.145V10.928h2.205l4.666 6.523v-6.523h2.144V21h-2.068zm7.919-4.017v-6.055h2.174v5.98c0 1.404.77 2.37 2.341 2.37 1.54 0 2.31-.966 2.31-2.37v-5.98h2.175v6.04c0 2.507-1.435 4.213-4.485 4.213-3.08 0-4.515-1.721-4.515-4.198zM45.768 21V10.928h4.711c2.19 0 3.383 1.48 3.383 3.247 0 1.751-1.208 3.216-3.383 3.216h-2.567V21h-2.144zm5.904-6.84c0-.831-.634-1.39-1.48-1.39h-2.28v2.779h2.28c.846 0 1.48-.544 1.48-1.39zM61.38 21v-8.184h-2.944v-1.888h8.033v1.888h-2.93V21H61.38zm5.612-5.028c0-3.036 2.22-5.21 5.255-5.21 3.05 0 5.27 2.174 5.27 5.21 0 3.035-2.22 5.21-5.27 5.21-3.035 0-5.255-2.175-5.255-5.21zm8.32 0c0-1.888-1.208-3.307-3.065-3.307-1.858 0-3.05 1.419-3.05 3.307 0 1.872 1.192 3.307 3.05 3.307 1.857 0 3.065-1.435 3.065-3.307z" fill="#fff"/><path d="M97.955 15.262c0 3.364-2.19 5.477-5.894 5.947v2.4h-3.339v-2.374c-2.79-.287-4.825-1.278-6.364-2.687l2.739-3.912a8.108 8.108 0 005.607 2.243c.992 0 1.93-.34 1.93-1.017 0-.678-.73-1.018-2.451-1.33-2.87-.522-7.251-1.2-7.251-5.556 0-2.634 1.956-5.06 5.79-5.556V.97h3.339v2.504c2.086.286 3.938 1.043 5.477 2.295l-2.817 3.73c-1.513-1.148-3.469-1.722-4.851-1.722-1.304 0-1.591.47-1.591.913 0 .678.704.913 2.556 1.226 2.869.496 7.12 1.33 7.12 5.347zM113.73 21H99.514v-4.095c7.955-5.608 8.712-6.26 8.712-7.564 0-.835-.887-1.356-2.113-1.356-1.748 0-3.156.678-4.486 1.8l-2.87-3.496c2.009-2.138 4.93-2.947 7.356-2.947 4.512 0 7.46 2.504 7.46 6 0 2.373-1.357 4.329-6.025 7.068h6.181V21zm1.181-8.685c0-4.721 2.53-8.973 7.721-8.973 5.19 0 7.72 4.252 7.72 8.973 0 4.72-2.53 8.998-7.72 8.998-5.191 0-7.721-4.277-7.721-8.998zm10.146 0c0-2.948-.756-4.33-2.425-4.33-1.67 0-2.426 1.382-2.426 4.33 0 2.947.756 4.355 2.426 4.355 1.669 0 2.425-1.408 2.425-4.356zm6.395 6.207c0-1.513 1.278-2.79 2.791-2.79 1.512 0 2.79 1.277 2.79 2.79 0 1.513-1.278 2.791-2.79 2.791-1.513 0-2.791-1.278-2.791-2.79zm6.969-6.207c0-4.721 2.53-8.973 7.721-8.973 5.19 0 7.72 4.252 7.72 8.973 0 4.72-2.53 8.998-7.72 8.998-5.191 0-7.721-4.277-7.721-8.998zm10.146 0c0-2.948-.756-4.33-2.425-4.33-1.67 0-2.426 1.382-2.426 4.33 0 2.947.756 4.355 2.426 4.355 1.669 0 2.425-1.408 2.425-4.356zm6.232 0c0-4.721 2.53-8.973 7.721-8.973 5.19 0 7.72 4.252 7.72 8.973 0 4.72-2.53 8.998-7.72 8.998-5.191 0-7.721-4.277-7.721-8.998zm10.146 0c0-2.948-.756-4.33-2.425-4.33-1.67 0-2.426 1.382-2.426 4.33 0 2.947.756 4.355 2.426 4.355 1.669 0 2.425-1.408 2.425-4.356zm6.232 0c0-4.721 2.53-8.973 7.721-8.973 5.19 0 7.72 4.252 7.72 8.973 0 4.72-2.53 8.998-7.72 8.998-5.191 0-7.721-4.277-7.721-8.998zm10.146 0c0-2.948-.756-4.33-2.425-4.33-1.67 0-2.426 1.382-2.426 4.33 0 2.947.756 4.355 2.426 4.355 1.669 0 2.425-1.408 2.425-4.356z" fill="#1FFF20" fill-opacity=".98"/></svg>