<svg width="190" height="19" viewBox="0 0 190 19" fill="none" xmlns="http://www.w3.org/2000/svg"><path d="M7.557 18.917a16.3 16.3 0 01-4.156-.529c-1.344-.353-2.435-.823-3.275-1.41L1.763 13.3c.79.52 1.705.94 2.746 1.26 1.041.318 2.066.478 3.073.478 1.915 0 2.872-.479 2.872-1.436 0-.504-.277-.873-.831-1.108-.538-.252-1.411-.512-2.62-.781-1.327-.286-2.435-.588-3.325-.907a5.708 5.708 0 01-2.292-1.587C.747 8.497.428 7.523.428 6.297c0-1.075.294-2.04.882-2.897.588-.873 1.46-1.562 2.62-2.065C5.105.83 6.54.579 8.237.579c1.159 0 2.3.134 3.426.403 1.125.252 2.116.63 2.972 1.134L13.1 5.818c-1.68-.906-3.309-1.36-4.887-1.36-.99 0-1.713.151-2.166.454-.454.285-.68.663-.68 1.133s.268.823.806 1.058c.537.235 1.402.479 2.594.73 1.344.286 2.452.597 3.325.933.89.319 1.654.84 2.292 1.561.655.706.983 1.671.983 2.897a4.96 4.96 0 01-.882 2.872c-.588.856-1.47 1.545-2.645 2.065-1.175.504-2.603.756-4.282.756zm13.62-14.03h-5.416V.931h15.794v3.954h-5.39v13.678h-4.988V4.886zm23.165 10.252h-7.456L35.5 18.564h-5.088L38.196.932h4.912l7.808 17.633h-5.189l-1.385-3.426zM42.88 11.46l-2.267-5.643-2.267 5.643h4.534zm16.25.705l-1.864 1.99v4.408H52.33V.932h4.938v7.33l6.826-7.33h5.491L62.381 8.74l7.582 9.824H64.17l-5.038-6.398zm26.297 2.544v3.854H71.272V.932H85.1v3.854h-8.892v2.972h7.834v3.728h-7.834v3.224h9.22zM96.257.932c1.595 0 2.98.268 4.156.806 1.176.52 2.083 1.276 2.721 2.267.638.974.957 2.124.957 3.45 0 1.327-.319 2.478-.957 3.452-.638.974-1.545 1.73-2.721 2.267-1.175.52-2.56.78-4.156.78h-3.073v4.61h-4.988V.932h8.06zm-.302 9.093c1.024 0 1.796-.218 2.317-.655.52-.453.781-1.091.781-1.914s-.26-1.461-.78-1.915c-.522-.453-1.294-.68-2.318-.68h-2.771v5.164h2.77zm18.276 3.854h-2.721v4.685h-4.987V.932h8.06c1.596 0 2.981.268 4.157.806 1.175.52 2.082 1.276 2.72 2.267.638.974.957 2.124.957 3.45 0 1.277-.302 2.394-.906 3.351-.588.94-1.436 1.68-2.545 2.217l3.804 5.541h-5.34l-3.199-4.685zm3.149-6.423c0-.823-.261-1.461-.781-1.915-.521-.453-1.293-.68-2.318-.68h-2.771v5.164h2.771c1.025 0 1.797-.218 2.318-.655.52-.453.781-1.091.781-1.914zm16.681 11.461c-1.864 0-3.543-.395-5.038-1.184-1.478-.79-2.645-1.88-3.501-3.274-.84-1.394-1.26-2.964-1.26-4.711 0-1.746.42-3.317 1.26-4.71.856-1.394 2.023-2.486 3.501-3.275 1.495-.79 3.174-1.184 5.038-1.184 1.864 0 3.535.395 5.013 1.184 1.494.79 2.662 1.88 3.501 3.275.857 1.393 1.285 2.964 1.285 4.71 0 1.747-.428 3.317-1.285 4.71-.839 1.394-2.007 2.486-3.501 3.275-1.478.79-3.149 1.184-5.013 1.184zm0-4.131c.89 0 1.696-.21 2.418-.63a4.554 4.554 0 001.713-1.763c.42-.773.63-1.654.63-2.645 0-.99-.21-1.864-.63-2.62a4.51 4.51 0 00-1.713-1.788c-.722-.42-1.528-.63-2.418-.63-.89 0-1.696.21-2.418.63a4.51 4.51 0 00-1.713 1.788c-.42.756-.63 1.63-.63 2.62 0 .99.21 1.873.63 2.645.42.756.991 1.343 1.713 1.763.722.42 1.528.63 2.418.63zm28.331 3.778l-.05-9.345-4.534 7.607h-2.217l-4.509-7.355v9.093h-4.61V.932h4.106l6.197 10.176L162.82.932h4.106l.051 17.632h-4.585zm17.006.353c-1.864 0-3.544-.395-5.038-1.184-1.478-.79-2.645-1.88-3.502-3.274-.839-1.394-1.259-2.964-1.259-4.711 0-1.746.42-3.317 1.259-4.71.857-1.394 2.024-2.486 3.502-3.275 1.494-.79 3.174-1.184 5.038-1.184 1.864 0 3.535.395 5.013 1.184 1.494.79 2.661 1.88 3.501 3.275.856 1.393 1.285 2.964 1.285 4.71 0 1.747-.429 3.317-1.285 4.71-.84 1.394-2.007 2.486-3.501 3.275-1.478.79-3.149 1.184-5.013 1.184zm0-4.131c.89 0 1.696-.21 2.418-.63a4.554 4.554 0 001.713-1.763c.42-.773.63-1.654.63-2.645 0-.99-.21-1.864-.63-2.62a4.51 4.51 0 00-1.713-1.788c-.722-.42-1.528-.63-2.418-.63-.89 0-1.696.21-2.418.63a4.497 4.497 0 00-1.713 1.788c-.42.756-.63 1.63-.63 2.62 0 .99.21 1.873.63 2.645a4.54 4.54 0 001.713 1.763c.722.42 1.528.63 2.418.63z" fill="#1FFF20"/></svg>